<svg version="1" xmlns="http://www.w3.org/2000/svg" width="933.333" height="933.333" viewBox="0 0 700 700">
    <path d="M341.7 55.6c-.1.1-5.6.5-12.1.8-6.6.4-12.9.9-14 1.1-1.2.3-4.1.7-6.6 1-2.5.3-5.4.7-6.5.9-1.1.2-3.8.7-6 1.1-2.2.4-6.9 1.4-10.5 2.2-3.6.8-7.2 1.6-8 1.8-3.7.7-11.3 3-21 6.2-43.3 14.3-82.7 38.8-115.5 71.7-32 32.1-56.6 71.7-70.4 113.3-3.6 10.7-8.6 29.6-10.1 37.8-.5 3.3-1.2 7.1-1.5 8.5-.3 1.4-.8 5.2-1.1 8.5-.4 3.3-.8 6.3-1 6.6-.5.9-1.7 22.6-1.7 31.9-.1 8.4 1.1 31.3 1.7 34.7.2 1 .7 4 1 6.8 8 57.2 31.3 108.2 70.3 153.6 29.6 34.5 73.7 65.1 116.8 81.2 14.5 5.5 35.8 11.5 48 13.7 3.3.5 7.1 1.2 8.5 1.5 1.4.3 4.8.8 7.5 1.1 2.8.3 6 .7 7.3.9 15.1 2.5 49.9 2.2 70.7-.5 12-1.6 12.2-1.7 23-4 5.5-1.1 11-2.3 12.3-2.6 1.3-.2 4.2-1.1 6.5-1.8s6.9-2.1 10.2-3.1c8.7-2.6 26.6-9.6 37-14.6 38-18 75.5-47.5 101.5-79.7 1.9-2.4 4.5-5.6 5.8-7 11-13 32.3-50.9 40.6-72.3 3.9-10.1 10.1-29.7 11.2-35.2.2-1 .5-2.6.8-3.5.3-.9.7-2.8 1-4.2.3-1.4.7-3.6 1-5 1.4-6.5 1.7-8 3.1-18 1.2-7.8 1.3-9.2 2.1-20.5.4-6.1.7-15.3.7-20.5 0-9.4-1.2-33-1.8-34-.1-.3-.6-3-.9-6-1.8-15.5-8.2-42.8-13.3-56.5-6.8-18.4-7.7-20.3-15-34.9-11.5-23.2-25.6-44.2-42.3-63.1-19.5-22.1-49.2-46.5-74-60.7-24.5-14.1-59-27.4-83.5-32.4-7-1.4-19.7-3.6-22.5-4-1.9-.2-4.8-.6-6.5-.8-6.9-1.1-41.9-2.7-42.8-2zM375 90.1c13.7 1.5 22.9 3 32.5 5.3 16.5 3.8 30.4 8.3 44.5 14.3 71.6 30.5 125.5 90.9 148.3 166.3 1.9 6.3 3.7 12.8 4 14.5.3 1.6 1.2 6.4 2.1 10.5 1.8 9.5 2.3 12.8 3.3 22 1 9.4 1 45.4.1 54-1.4 11.7-2 15.5-2.8 16.5-1.1 1.4-512.6 1.3-513.9 0-2.3-2.5-4.1-27.5-3.7-50 1.8-82.6 40.3-155.4 108.8-205.8 4.2-3.1 8.1-5.7 8.7-5.7.5 0 1.1-.4 1.3-.8.3-.9 15.9-10.2 24.4-14.5 26.8-13.6 61-23.5 90.9-26.3 3.9-.4 7.1-.8 7.3-.9.8-.7 37.5-.2 44.2.6zm226.7 326.8c1 .1-7.1 26.2-9.7 31.1-1.1 2-2.9 2-242.1 2h-241l-1.9-4.5c-4-9.4-9.4-27.7-8.3-28.3.8-.5 496.9-.8 503-.3zM580 473.1c0 2.2-17.5 29.5-20.1 31.5-1.7 1.2-417.7 1.3-419.7.1-1.6-1.1-11.8-16.2-16.9-25.3l-4-7.1h230.3c126.7 0 230.4.4 230.4.8zm-40.3 55.3c1 .9-14 15.2-26 24.8l-9.8 7.8H196.3l-4.9-3.7c-13.1-9.8-32.3-28.1-30.6-29.2 1.4-.8 378.1-.6 378.9.3zM465 584.1c0 1.1-26 11.6-38 15.3-11.3 3.5-26.2 7-34.4 8.1-2.2.3-8.4 1.2-13.6 1.9-10.6 1.5-45.3 1.8-54.5.6-3.3-.5-8.2-1.1-11-1.5-2.7-.3-8.3-1.3-12.5-2.1-4.1-.8-8.8-1.8-10.5-2.1-5.1-.9-25.5-7.3-34.5-10.8-9.6-3.7-22-9.2-22-9.8 0-.2 52-.3 115.5-.3s115.5.3 115.5.7z"/>
</svg>
