<svg width="1537" height="530" xmlns="http://www.w3.org/2000/svg">
    <g fill="none" fill-rule="evenodd">
        <circle stroke="#FFF" stroke-width="30" cx="265" cy="265" r="250"/>
        <path d="M115 465h300M65 415h400M35 365h460M20 315h490" stroke="#FFF" stroke-linecap="square" stroke-width="20"/>
        <path d="M818.75 278.75c0-6.833-1.375-11.75-4.125-14.75s-5.458-5.167-8.125-6.5c-6.167-3-13.125-5.583-20.875-7.75s-15.083-5.083-22-8.75-12.708-8.667-17.375-15-7-15.083-7-26.25c0-15.667 4.875-27.958 14.625-36.875 9.75-8.917 22.958-13.375 39.625-13.375 3.333 0 7.625.25 12.875.75s10.375 1.458 15.375 2.875 9.292 3.417 12.875 6S840 165.083 840 169.25c0 3.333-1.208 6.25-3.625 8.75s-5.792 3.75-10.125 3.75c-2.167 0-4.25-.333-6.25-1s-4.167-1.458-6.5-2.375-4.958-1.708-7.875-2.375-6.458-1-10.625-1c-3.5 0-6.917.375-10.25 1.125s-6.292 2-8.875 3.75-4.625 4.167-6.125 7.25S767.5 194 767.5 198.5c0 3.5.417 6.417 1.25 8.75s1.875 4.333 3.125 6c1.25 1.667 2.625 2.958 4.125 3.875 1.5.917 2.833 1.708 4 2.375 6.333 3.167 13.375 5.875 21.125 8.125s15.042 5.167 21.875 8.75 12.583 8.458 17.25 14.625 7 14.833 7 26c0 8.5-1.458 16.042-4.375 22.625-2.917 6.583-7 12.167-12.25 16.75S819.167 324.417 812 326.75s-14.917 3.5-23.25 3.5c-4.333 0-9.375-.375-15.125-1.125s-11.167-1.958-16.25-3.625-9.417-3.833-13-6.5-5.375-5.917-5.375-9.75c0-3.333 1.208-6.292 3.625-8.875s5.458-3.875 9.125-3.875c1.833 0 3.875.417 6.125 1.25s4.833 1.792 7.75 2.875 6.292 2.042 10.125 2.875c3.833.833 8.25 1.25 13.25 1.25 10 0 17.458-2.25 22.375-6.75 4.917-4.5 7.375-10.917 7.375-19.25zM868 214c0-9.833 1.208-18.708 3.625-26.625 2.417-7.917 6.083-14.667 11-20.25s11.125-9.917 18.625-13S917.667 149.5 928 149.5c6.167 0 12.125.625 17.875 1.875s10.875 3 15.375 5.25 8.083 4.792 10.75 7.625 4 5.917 4 9.25-1.208 6.167-3.625 8.5-5.458 3.5-9.125 3.5c-2.333 0-4.125-.375-5.375-1.125s-2.792-1.708-4.625-2.875l-1.25-.75c-6.667-4.667-14.25-7-22.75-7-12.667 0-21.458 3.625-26.375 10.875-4.917 7.25-7.375 17.042-7.375 29.375v51.5c0 12.333 2.458 22.125 7.375 29.375s13.708 10.875 26.375 10.875c8.5 0 16.083-2.25 22.75-6.75l1.25-.75a213.252 213.252 0 0 1 4.625-2.875c1.25-.75 3.042-1.125 5.375-1.125 3.667 0 6.708 1.167 9.125 3.5S976 302.833 976 306c0 3.333-1.333 6.458-4 9.375s-6.25 5.458-10.75 7.625-9.625 3.875-15.375 5.125S934.167 330 928 330c-10.333 0-19.25-1.542-26.75-4.625s-13.708-7.417-18.625-13-8.583-12.375-11-20.375S868 275.167 868 265.5V214zm248.25 103.25c0 3.5-1.333 6.583-4 9.25s-5.917 4-9.75 4c-3.667 0-6.875-1.333-9.625-4s-4.125-5.75-4.125-9.25v-64.5H1028v64.5c0 3.5-1.333 6.583-4 9.25s-5.917 4-9.75 4-7.083-1.333-9.75-4-4-5.75-4-9.25V162.5c0-3.5 1.333-6.542 4-9.125s5.917-3.875 9.75-3.875 7.083 1.292 9.75 3.875 4 5.625 4 9.125V227h60.75v-64.5c0-3.5 1.375-6.542 4.125-9.125s5.958-3.875 9.625-3.875 6.875 1.292 9.625 3.875 4.125 5.625 4.125 9.125v154.75zm150.5-56c0 8.667-1.25 17.042-3.75 25.125-2.5 8.083-6.542 15.208-12.125 21.375s-13 11.083-22.25 14.75S1208 328 1194.5 328h-28.25c-4.333 0-8.042-1.458-11.125-4.375s-4.625-6.458-4.625-10.625V166.5c0-4 1.542-7.5 4.625-10.5s6.792-4.5 11.125-4.5h28.25c13.5 0 24.833 1.792 34 5.375 9.167 3.583 16.583 8.333 22.25 14.25 5.667 5.917 9.75 12.792 12.25 20.625s3.75 16 3.75 24.5v45zm-27.5-45c0-5.5-.708-10.625-2.125-15.375s-3.75-8.875-7-12.375-7.417-6.25-12.5-8.25-11.375-3-18.875-3H1178V302.5h20.75c7.5 0 13.833-1.083 19-3.25s9.333-5.125 12.5-8.875 5.458-8.125 6.875-13.125c1.417-5 2.125-10.333 2.125-16v-45zm67.25 104.5c-.833 3-2.625 5.333-5.375 7-2.75 1.667-5.292 2.5-7.625 2.5-3.833 0-7.167-1.167-10-3.5s-4.25-5.417-4.25-9.25c0-.667.042-1.5.125-2.5.083-1 .208-1.75.375-2.25l48.75-148.25c1.333-4.333 3.25-7.917 5.75-10.75s6.167-4.25 11-4.25 8.458 1.417 10.875 4.25 4.375 6.417 5.875 10.75l48.75 148.25c.333.5.542 1.25.625 2.25.083 1 .125 1.833.125 2.5 0 3.833-1.375 6.917-4.125 9.25s-6.125 3.5-10.125 3.5c-4.5 0-7.75-1.417-9.75-4.25s-3.833-6.5-5.5-11l-8-24.25h-58.25l-9.25 30zm38.75-130c-3.167 13.333-6.625 26.167-10.375 38.5a29207.59 29207.59 0 0 0-11.375 37.5h43.25a4040.916 4040.916 0 0 0-11.625-37.75 389.812 389.812 0 0 1-9.875-38.25zm87-31.75a12290.236 12290.236 0 0 0 20.5 64.875A952.227 952.227 0 0 1 1471 289c1.167-4.833 2.333-9.792 3.5-14.875 1.167-5.083 2.5-9.958 4-14.625l31.25-100.5c.833-2.833 2.625-5.125 5.375-6.875s5.375-2.625 7.875-2.625c4.167 0 7.583 1.208 10.25 3.625s4 5.542 4 9.375c0 .5-.042 1.25-.125 2.25-.083 1-.208 1.75-.375 2.25L1488 315.25c-1.5 4.5-3.5 8.125-6 10.875s-6.167 4.125-11 4.125-8.458-1.417-10.875-4.25-4.292-6.417-5.625-10.75L1405.75 167c-.333-.5-.542-1.25-.625-2.25-.083-1-.125-1.75-.125-2.25 0-3.833 1.417-6.958 4.25-9.375s6.167-3.625 10-3.625c2.333 0 4.833.875 7.5 2.625s4.5 4.042 5.5 6.875z" fill="#FFF"/>
    </g>
</svg>
